# xmcd
#
# Track frame offsets: 
#        150
#        12606
#        33361
#        54017
#        82799
#        99253
#        116976
#        130234
#        152349
#        173953
#
# Disc length: 2587 seconds
#
# Revision: 0
# Processed by: cddbd v1.5.2PL0 Copyright (c) Steve Scherf et al.
# Submitted via: ExactAudioCopy v0.95b3
#
DISCID=6e0a190a
DTITLE=Jimmy Smith - '75 (vinyl rip)
DYEAR=1975
DGENRE=Blues
TTITLE0=Organ Grinder's Swing
TTITLE1=It's Alright With Me
TTITLE2=For the Good Times
TTITLE3=Jazz Scattin'
TTITLE4=Got My Mojo Workin'
TTITLE5=Testifyin'
TTITLE6=More To Life (Than Living)
TTITLE7=St. Thomas Calypso
TTITLE8=(That's the Time) I Feel Like Making Love
TTITLE9=Lookin' Ain't Gettin'
EXTD=
EXTT0=
EXTT1=
EXTT2=
EXTT3=
EXTT4=
EXTT5=
EXTT6=
EXTT7=
EXTT8=
EXTT9=
PLAYORDER=
